<svg class="business-svg business-svg-thumb-2" xmlns="http://www.w3.org/2000/svg" width="520" height="340" viewBox="0 0 520 340" role="img" aria-label="AHMEDABAD FURNITURE Furniture store image">
  <defs>
    <linearGradient id="g-thumb-2-home" x1="0" x2="1" y1="0" y2="1">
      <stop offset="0" stop-color="#78716c"/>
      <stop offset="1" stop-color="#292524"/>
    </linearGradient>
    <pattern id="p-thumb-2-home" width="64" height="64" patternUnits="userSpaceOnUse">
      <circle cx="8" cy="8" r="3" fill="#ffffff" opacity=".22"/>
      <path d="M0 64L64 0" stroke="#ffffff" stroke-opacity=".10" stroke-width="2"/>
    </pattern>
  </defs>
  <rect width="100%" height="100%" rx="22" fill="#f5f5f4"/>
  <rect width="100%" height="100%" rx="22" fill="url(#g-thumb-2-home)" opacity=".92"/>
  <rect width="100%" height="100%" rx="22" fill="url(#p-thumb-2-home)"/>
  <circle cx="430" cy="58" r="78" fill="#ffffff" opacity=".16"/>
  <circle cx="470" cy="294" r="120" fill="#ffffff" opacity=".12"/>
  <g transform="translate(315 75) scale(.82)">
    <rect x="0" y="0" width="256" height="256" rx="44" fill="#ffffff" opacity=".9"/>
    <path fill="none" stroke="#292524" stroke-width="10" stroke-linecap="round" stroke-linejoin="round" d="M44 124l84-72 84 72"/><path fill="none" stroke="#292524" stroke-width="10" stroke-linecap="round" stroke-linejoin="round" d="M68 116v92h120v-92"/><path fill="none" stroke="#292524" stroke-width="10" stroke-linecap="round" stroke-linejoin="round" d="M104 208v-58h48v58"/>
  </g>
  <text x="36" y="66" fill="#ffffff" opacity=".86" font-family="Arial, sans-serif" font-size="18" font-weight="800" letter-spacing="3">FURNITURE STORE</text>
  <text x="36" y="122" fill="#fff" font-family="Arial, sans-serif" font-size="30" font-weight="900">AHMEDABAD FURNITURE</text>
  <text x="36" y="164" fill="#ffffff" opacity=".86" font-family="Arial, sans-serif" font-size="18" font-weight="700">Furniture store in Ahmedabad</text>
  <rect x="36" y="232" width="210" height="44" rx="22" fill="#ffffff" opacity=".92"/>
  <text x="58" y="261" fill="#292524" font-family="Arial, sans-serif" font-size="16" font-weight="900">WP ENQUIRY READY</text>
</svg>