<svg xmlns="http://www.w3.org/2000/svg" width="1200" height="620" viewBox="0 0 1200 620" role="img" aria-label="Dr. Ravi&apos;s Pet Clinic Veterinary care services image">
  <defs>
    <linearGradient id="g" x1="0" x2="1" y1="0" y2="1">
      <stop offset="0" stop-color="#0891b2"/>
      <stop offset="1" stop-color="#0f766e"/>
    </linearGradient>
    <pattern id="p" width="64" height="64" patternUnits="userSpaceOnUse">
      <circle cx="8" cy="8" r="3" fill="#ffffff" opacity=".22"/>
      <path d="M0 64L64 0" stroke="#ffffff" stroke-opacity=".10" stroke-width="2"/>
    </pattern>
  </defs>
  <rect width="100%" height="100%" rx="34" fill="#e0f2fe"/>
  <rect width="100%" height="100%" rx="34" fill="url(#g)" opacity=".92"/>
  <rect width="100%" height="100%" rx="34" fill="url(#p)"/>
  <circle cx="980" cy="110" r="170" fill="#ffffff" opacity=".16"/>
  <circle cx="1080" cy="510" r="240" fill="#ffffff" opacity=".12"/>
  <g transform="translate(770 168) scale(1.35)">
    <rect x="0" y="0" width="256" height="256" rx="44" fill="#ffffff" opacity=".9"/>
    <path fill="none" stroke="#0f766e" stroke-width="10" stroke-linecap="round" stroke-linejoin="round" d="M128 76v104M76 128h104"/><circle fill="none" stroke="#0f766e" stroke-width="10" stroke-linecap="round" stroke-linejoin="round" cx="128" cy="128" r="82"/>
  </g>
  <text x="72" y="116" fill="#ffffff" opacity=".86" font-family="Arial, sans-serif" font-size="30" font-weight="800" letter-spacing="3">CARE</text>
  <text x="72" y="206" fill="#fff" font-family="Arial, sans-serif" font-size="58" font-weight="900">Dr. Ravi&apos;s Pet Clinic</text>
  <text x="72" y="268" fill="#ffffff" opacity=".86" font-family="Arial, sans-serif" font-size="30" font-weight="700">Veterinary care services in Bengaluru</text>
  <rect x="72" y="360" width="380" height="70" rx="35" fill="#ffffff" opacity=".92"/>
  <text x="112" y="405" fill="#0f766e" font-family="Arial, sans-serif" font-size="28" font-weight="900">WP ENQUIRY READY</text>
</svg>