<svg xmlns="http://www.w3.org/2000/svg" width="1200" height="620" viewBox="0 0 1200 620" role="img" aria-label="BARBER UNISEX SALON Beauty salon image">
  <defs>
    <linearGradient id="g" x1="0" x2="1" y1="0" y2="1">
      <stop offset="0" stop-color="#c026d3"/>
      <stop offset="1" stop-color="#86198f"/>
    </linearGradient>
    <pattern id="p" width="64" height="64" patternUnits="userSpaceOnUse">
      <circle cx="8" cy="8" r="3" fill="#ffffff" opacity=".22"/>
      <path d="M0 64L64 0" stroke="#ffffff" stroke-opacity=".10" stroke-width="2"/>
    </pattern>
  </defs>
  <rect width="100%" height="100%" rx="34" fill="#fae8ff"/>
  <rect width="100%" height="100%" rx="34" fill="url(#g)" opacity=".92"/>
  <rect width="100%" height="100%" rx="34" fill="url(#p)"/>
  <circle cx="980" cy="110" r="170" fill="#ffffff" opacity=".16"/>
  <circle cx="1080" cy="510" r="240" fill="#ffffff" opacity=".12"/>
  <g transform="translate(770 168) scale(1.35)">
    <rect x="0" y="0" width="256" height="256" rx="44" fill="#ffffff" opacity=".9"/>
    <path fill="none" stroke="#86198f" stroke-width="10" stroke-linecap="round" stroke-linejoin="round" d="M128 42l18 55 58 18-58 18-18 58-18-58-58-18 58-18z"/><path fill="none" stroke="#86198f" stroke-width="10" stroke-linecap="round" stroke-linejoin="round" d="M70 54l8 24 24 8-24 8-8 24-8-24-24-8 24-8z"/>
  </g>
  <text x="72" y="116" fill="#ffffff" opacity=".86" font-family="Arial, sans-serif" font-size="30" font-weight="800" letter-spacing="3">BEAUTY</text>
  <text x="72" y="206" fill="#fff" font-family="Arial, sans-serif" font-size="58" font-weight="900">BARBER UNISEX SALON</text>
  <text x="72" y="268" fill="#ffffff" opacity=".86" font-family="Arial, sans-serif" font-size="30" font-weight="700">Beauty salon in Jaipur</text>
  <rect x="72" y="360" width="380" height="70" rx="35" fill="#ffffff" opacity=".92"/>
  <text x="112" y="405" fill="#86198f" font-family="Arial, sans-serif" font-size="28" font-weight="900">WP ENQUIRY READY</text>
</svg>