<svg class="business-svg business-svg-thumb-2" xmlns="http://www.w3.org/2000/svg" width="520" height="340" viewBox="0 0 520 340" role="img" aria-label="The Best Pest Management Services Pest control service image">
  <defs>
    <linearGradient id="g-thumb-2-shield" x1="0" x2="1" y1="0" y2="1">
      <stop offset="0" stop-color="#65a30d"/>
      <stop offset="1" stop-color="#166534"/>
    </linearGradient>
    <pattern id="p-thumb-2-shield" width="64" height="64" patternUnits="userSpaceOnUse">
      <circle cx="8" cy="8" r="3" fill="#ffffff" opacity=".22"/>
      <path d="M0 64L64 0" stroke="#ffffff" stroke-opacity=".10" stroke-width="2"/>
    </pattern>
  </defs>
  <rect width="100%" height="100%" rx="22" fill="#ecfccb"/>
  <rect width="100%" height="100%" rx="22" fill="url(#g-thumb-2-shield)" opacity=".92"/>
  <rect width="100%" height="100%" rx="22" fill="url(#p-thumb-2-shield)"/>
  <circle cx="430" cy="58" r="78" fill="#ffffff" opacity=".16"/>
  <circle cx="470" cy="294" r="120" fill="#ffffff" opacity=".12"/>
  <g transform="translate(315 75) scale(.82)">
    <rect x="0" y="0" width="256" height="256" rx="44" fill="#ffffff" opacity=".9"/>
    <path fill="none" stroke="#166534" stroke-width="10" stroke-linecap="round" stroke-linejoin="round" d="M128 42l74 28v58c0 50-30 82-74 100-44-18-74-50-74-100V70z"/><path fill="none" stroke="#166534" stroke-width="10" stroke-linecap="round" stroke-linejoin="round" d="M94 130l22 22 48-54"/>
  </g>
  <text x="36" y="66" fill="#ffffff" opacity=".86" font-family="Arial, sans-serif" font-size="18" font-weight="800" letter-spacing="3">PEST CONTROL SERVICE</text>
  <text x="36" y="122" fill="#fff" font-family="Arial, sans-serif" font-size="30" font-weight="900">The Best Pest Management Services</text>
  <text x="36" y="164" fill="#ffffff" opacity=".86" font-family="Arial, sans-serif" font-size="18" font-weight="700">Pest control service in Pune</text>
  <rect x="36" y="232" width="210" height="44" rx="22" fill="#ffffff" opacity=".92"/>
  <text x="58" y="261" fill="#166534" font-family="Arial, sans-serif" font-size="16" font-weight="900">WP ENQUIRY READY</text>
</svg>